<svg preserveAspectRatio="none" width="100%" height="100%" overflow="visible" style="display: block;" viewBox="0 0 32.2937 36" fill="none" xmlns="http://www.w3.org/2000/svg">
<path id="Vector" d="M18.2167 1.38495C18.2167 1.01772 18.3475 0.665529 18.5805 0.405855C18.8134 0.146182 19.1294 0.000299657 19.4588 0.000299657C22.8628 0.000299657 26.1274 1.50776 28.5344 4.19104C30.9415 6.87433 32.2937 10.5137 32.2937 14.3084C32.2937 14.6756 32.1628 15.0278 31.9299 15.2875C31.697 15.5472 31.381 15.6931 31.0516 15.6931C30.7222 15.6931 30.4063 15.5472 30.1733 15.2875C29.9404 15.0278 29.8095 14.6756 29.8095 14.3084C29.8095 11.2481 28.719 8.31319 26.7779 6.14924C24.8367 3.9853 22.204 2.76961 19.4588 2.76961C19.1294 2.76961 18.8134 2.62373 18.5805 2.36405C18.3475 2.10438 18.2167 1.75219 18.2167 1.38495ZM18.2167 8.76978C18.2167 8.40255 18.3475 8.05035 18.5805 7.79068C18.8134 7.53101 19.1294 7.38513 19.4588 7.38513C21.1059 7.38513 22.6855 8.11454 23.8502 9.41291C25.0149 10.7113 25.6692 12.4722 25.6692 14.3084C25.6692 14.6756 25.5384 15.0278 25.3054 15.2875C25.0725 15.5472 24.7566 15.6931 24.4271 15.6931C24.0977 15.6931 23.7818 15.5472 23.5488 15.2875C23.3159 15.0278 23.185 14.6756 23.185 14.3084C23.185 13.2067 22.7925 12.1501 22.0936 11.3711C21.3948 10.5921 20.447 10.1544 19.4588 10.1544C19.1294 10.1544 18.8134 10.0086 18.5805 9.74888C18.3475 9.48921 18.2167 9.13701 18.2167 8.76978ZM11.1848 2.15298C10.2375 0.657549 8.92585 -0.0163162 7.53471 0.000299657C6.21479 0.0150693 4.92964 0.644626 3.85647 1.4828C2.76187 2.34188 1.82853 3.43127 1.10897 4.68966C0.429961 5.88785 -0.0602501 7.30389 0.00599463 8.6867C0.325626 15.3386 3.68258 22.4465 8.39755 27.7063C13.1092 32.9606 19.4008 36.6124 25.7537 35.9146C26.9991 35.7779 28.1766 35.0708 29.1388 34.1699C30.134 33.2302 30.9471 32.0743 31.5286 30.7729C32.0917 29.4953 32.4278 28.022 32.2424 26.5875C32.0503 25.0921 31.3 23.7554 29.9205 22.8693C29.6347 22.6844 29.352 22.4936 29.0725 22.2969C28.8241 22.1252 28.5592 21.9388 28.2379 21.7246C27.5816 21.2736 26.8891 20.8916 26.1694 20.5837C25.4291 20.2827 24.5828 20.0852 23.7018 20.22C22.7892 20.3603 21.9413 20.8403 21.2076 21.7006C20.6429 22.3652 19.8115 22.572 18.6423 22.1954C17.4532 21.8114 16.1151 20.8587 14.9525 19.5701C13.7899 18.2851 12.9105 16.7823 12.5345 15.4254C12.1636 14.0813 12.3275 13.0936 12.9072 12.4123C13.6905 11.4929 14.1079 10.4701 14.1956 9.38826C14.2817 8.33592 14.0466 7.34636 13.7104 6.48233C13.2069 5.19183 12.3524 3.90872 11.6833 2.90807C11.5151 2.6579 11.3495 2.40557 11.1865 2.15113" fill="var(--fill-0, white)"/>
</svg>
