<svg preserveAspectRatio="none" width="100%" height="100%" overflow="visible" style="display: block;" viewBox="0 0 20.533 16.115" fill="none" xmlns="http://www.w3.org/2000/svg">
<path id="Vector" d="M11.4297 0.42942C11.7048 0.154462 12.0778 0 12.4667 0C12.8556 0 13.2286 0.154462 13.5036 0.42942L20.1036 7.02942C20.3786 7.30446 20.533 7.67745 20.533 8.06635C20.533 8.45526 20.3786 8.82825 20.1036 9.10329L13.5036 15.7033C13.227 15.9705 12.8565 16.1183 12.4719 16.1149C12.0874 16.1116 11.7195 15.9574 11.4476 15.6854C11.1757 15.4135 11.0214 15.0456 11.0181 14.6611C11.0147 14.2765 11.1626 13.906 11.4297 13.6294L15.4 9.53302H1.46667C1.07768 9.53302 0.70463 9.3785 0.429577 9.10344C0.154523 8.82839 0 8.45534 0 8.06635C0 7.67737 0.154523 7.30432 0.429577 7.02926C0.70463 6.75421 1.07768 6.59969 1.46667 6.59969H15.4L11.4297 2.50329C11.1548 2.22825 11.0003 1.85526 11.0003 1.46635C11.0003 1.07745 11.1548 0.704461 11.4297 0.42942Z" fill="var(--fill-0, #2F7D4E)"/>
</svg>
