<svg xmlns="http://www.w3.org/2000/svg" width="948" height="885" viewBox="0 0 948 885">
  <path d="M 694 36 L 675 25 L 655 20 L 610 24 L 475 67 L 310 127 L 239 148 L 217 145 L 199 135 L 183 131 L 159 131 L 139 136 L 139 144 L 156 162 L 161 200 L 167 217 L 182 228 L 211 237 L 236 241 L 262 241 L 312 233 L 440 188 L 452 190 L 457 205 L 432 274 L 400 338 L 326 453 L 246 559 L 186 627 L 137 676 L 87 720 L 78 724 L 72 723 L 64 714 L 59 699 L 50 700 L 30 744 L 20 801 L 23 831 L 41 859 L 54 864 L 74 864 L 98 854 L 143 811 L 254 687 L 271 674 L 274 675 L 289 765 L 296 788 L 308 812 L 322 829 L 343 840 L 362 841 L 376 836 L 391 824 L 393 800 L 373 722 L 371 687 L 379 663 L 396 639 L 440 600 L 517 556 L 599 527 L 679 513 L 706 515 L 710 521 L 710 529 L 686 580 L 663 619 L 628 667 L 601 698 L 557 739 L 497 786 L 490 798 L 491 816 L 505 832 L 531 844 L 595 845 L 682 838 L 733 830 L 783 814 L 801 801 L 811 784 L 811 769 L 802 749 L 781 727 L 739 706 L 847 611 L 874 595 L 900 585 L 910 577 L 923 559 L 927 546 L 925 524 L 902 488 L 881 471 L 843 451 L 785 432 L 742 426 L 689 428 L 642 438 L 589 457 L 518 491 L 427 544 L 343 600 L 340 599 L 354 563 L 378 522 L 488 363 L 597 183 L 609 170 L 681 116 L 705 90 L 710 74 L 709 60 L 702 44 Z" fill="#2F7D4E"/>
</svg>
